<svg xmlns="http://www.w3.org/2000/svg" xmlns:xlink="http://www.w3.org/1999/xlink" xml:space="preserve" version="1.1" x="0px" y="0px" viewBox="0 0 100 100">
  <path d="M87.5,17.5H85V10c0-2.761-2.239-5-5-5H10c-2.761,0-5,2.239-5,5v20c0,2.761,2.239,5,5,5h70c2.761,0,5-2.239,5-5v-7.5h2.5
    c1.378,0,2.5,1.122,2.5,2.5v15c0,1.378-1.122,2.5-2.5,2.5h-40c-4.136,0-7.5,3.364-7.5,7.5v5h-2.5c-2.761,0-5,2.239-5,5v30
    c0,2.761,2.239,5,5,5h10c2.761,0,5-2.239,5-5V60c0-2.761-2.239-5-5-5H45v-5c0-1.378,1.122-2.5,2.5-2.5h40
    c4.136,0,7.5-3.364,7.5-7.5V25C95,20.864,91.636,17.5,87.5,17.5z,27.5h-65v-15h65V27.5z M45"
    fill="none" stroke="currentColor" stroke-width="3" stroke-linecap="round" stroke-linejoin="round"></path>
</svg>

