<svg xmlns="http://www.w3.org/2000/svg" style="display:none">
  <symbol id="chart" viewBox="0 0 24 24">

  <path d="M21.446 7.06901C20.6342 5.00831 18.9917 3.36579 16.931 2.55398C15.3895 1.94669 14 3.34316 14 5.00002V9.00002C14 9.5523 14.4477 10 15 10H19C20.6569 10 22.0533 8.61055 21.446 7.06901Z" fill="none" stroke="currentColor" stroke-width="1.1"/>
  <path d="M6.22209 4.60105C6.66665 4.304 7.13344 4.04636 7.6171 3.82976C8.98898 3.21539 9.67491 2.9082 10.5875 3.4994C11.5 4.09061 11.5 5.06041 11.5 7.00001V8.50001C11.5 10.3856 11.5 11.3284 12.0858 11.9142C12.6716 12.5 13.6144 12.5 15.5 12.5H17C18.9396 12.5 19.9094 12.5 20.5006 13.4125C21.0918 14.3251 20.7846 15.011 20.1702 16.3829C19.9536 16.8666 19.696 17.3334 19.399 17.7779C18.3551 19.3402 16.8714 20.5578 15.1355 21.2769C13.3996 21.9959 11.4895 22.184 9.64665 21.8175C7.80383 21.4509 6.11109 20.5461 4.78249 19.2175C3.45389 17.8889 2.5491 16.1962 2.18254 14.3534C1.81598 12.5105 2.00412 10.6004 2.72315 8.86451" fill="none" stroke="currentColor" stroke-width="1" stroke-linecap="round" stroke-linejoin="round"/>

  </symbol>
  <symbol id="github" viewBox="0 0 24 24">
<g stroke-linejoin="round" stroke-linecap="round" stroke-width="1" fill="none" stroke="currentColor"><path d="M9 19c-4.3 1.4 -4.3 -2.5 -6 -3m12 5v-3.5c0 -1 .1 -1.4 -.5 -2c2.8 -.3 5.5 -1.4 5.5 -6a4.6 4.6 0 0 0 -1.3 -3.2a4.2 4.2 0 0 0 -.1 -3.2s-1.1 -.3 -3.5 1.3a12.3 12.3 0 0 0 -6.2 0c-2.4 -1.6 -3.5 -1.3 -3.5 -1.3a4.2 4.2 0 0 0 -.1 3.2a4.6 4.6 0 0 0 -1.3 3.2c0 4.6 2.7 5.7 5.5 6c-.6 .6 -.6 1.2 -.5 2v3.5"></path></g>
  </symbol>
  <symbol id="menu" viewBox="0 0 24 24">

  <rect width="24" height="24" rx="6" fill="none" opacity="0.0" />
  
  <rect x="2" y="4" width="20" height="4" fill="none" stroke="currentColor" stroke-width="1" rx="2" />
  <rect x="2" y="10" width="20" height="4" fill="none" stroke="currentColor" stroke-width="1" rx="2" />
  <rect x="2" y="16" width="20" height="4" fill="none" stroke="currentColor" stroke-width="1" rx="2" />

  </symbol>
  <symbol id="nested_circle" viewBox="64 24 32 36">

  <circle cx="80" cy="42" r="16" fill="#ff9900"/>
  <circle cx="80" cy="50" r="8" fill="white"/>

  </symbol>
  <symbol id="paint_roller" viewBox="0 0 100 100">

  <path d="M87.5,17.5H85V10c0-2.761-2.239-5-5-5H10c-2.761,0-5,2.239-5,5v20c0,2.761,2.239,5,5,5h70c2.761,0,5-2.239,5-5v-7.5h2.5
    c1.378,0,2.5,1.122,2.5,2.5v15c0,1.378-1.122,2.5-2.5,2.5h-40c-4.136,0-7.5,3.364-7.5,7.5v5h-2.5c-2.761,0-5,2.239-5,5v30
    c0,2.761,2.239,5,5,5h10c2.761,0,5-2.239,5-5V60c0-2.761-2.239-5-5-5H45v-5c0-1.378,1.122-2.5,2.5-2.5h40
    c4.136,0,7.5-3.364,7.5-7.5V25C95,20.864,91.636,17.5,87.5,17.5z,27.5h-65v-15h65V27.5z M45"
    fill="none" stroke="currentColor" stroke-width="3" stroke-linecap="round" stroke-linejoin="round"></path>

  </symbol>
</svg>
