<svg width="160" height="160" viewBox="0 0 160 160" xmlns="http://www.w3.org/2000/svg" role="img" aria-label="Favicon">

  <!-- Hexagon frame + radial grid to suggest a radial graph -->
  <g id="radial-frame" fill="none" stroke-linejoin="round" stroke-linecap="round">
    <!-- Outer hexagon (point-up) -->
    <polygon points="80,14 137.156,47 137.156,113 80,146 22.844,113 22.844,47" stroke="#0056b3" stroke-width="2" stroke-opacity="1" stroke-dasharray="4 1 4" />

    <!-- Concentric hex rings (subtle) -->
    <polygon points="80,36 118.104,58 118.104,102 80,124 41.896,102 41.896,58" stroke="#0056b3" stroke-width="2" stroke-opacity="0.8" stroke-dasharray="4 1 4"/>
    <polygon points="80,58 99.052,69 99.052,91 80,102 60.948,91 60.948,69" stroke="#0056b3" stroke-width="1" stroke-opacity="0.4" stroke-dasharray="4 1 4" />

    <!-- Radial spokes from center to vertices (very subtle) -->
    <g stroke="#0056b3" stroke-width="1" stroke-opacity="1">
      <line x1="80" y1="80" x2="80" y2="14" stroke-dasharray="4 1 4"/>
      <line x1="80" y1="80" x2="137.156" y2="47" stroke-dasharray="4 1 4"/>
      <line x1="80" y1="80" x2="137.156" y2="113" stroke-dasharray="4 1 4"/>
      <line x1="80" y1="80" x2="80" y2="146" stroke-dasharray="4 1 4"/>
      <line x1="80" y1="80" x2="22.844" y2="113" stroke-dasharray="4 1 4"/>
      <line x1="80" y1="80" x2="22.844" y2="47" stroke-dasharray="4 1 4"/>
    </g>
  </g>

  <!-- Original mark (kept on top) -->
  <circle cx="80" cy="42" r="15" fill="#ff9900"/>
  <circle cx="80" cy="47" r="8" fill="white"/>
  <path d="M60,140 L60,60 Q80,50 100,60 L100,100 A20,30 0 1 1 60,100 Z" fill="#0056b3"/>

</svg>
